<svg xmlns="http://www.w3.org/2000/svg" version="1.1" xmlns:xlink="http://www.w3.org/1999/xlink" xmlns:svgjs="http://svgjs.dev/svgjs" width="128" height="128" viewBox="0 0 128 128"><g transform="matrix(0.8046875,0,0,0.8046875,12.506335372881338,12.506335372881338)"><svg viewBox="0 0 59 59" data-background-color="#ffffff" preserveAspectRatio="xMidYMid meet" height="128" width="128" xmlns="http://www.w3.org/2000/svg" xmlns:xlink="http://www.w3.org/1999/xlink"><g id="tight-bounds" transform="matrix(1,0,0,1,-0.0036289999999894462,-0.0036289999999894462)"><svg viewBox="0 0 59.00725799999999 59.00725799999999" height="59.00725799999999" width="59.00725799999999"><g><svg viewBox="0 0 59.00725799999999 59.00725799999999" height="59.00725799999999" width="59.00725799999999"><g><svg viewBox="0 0 59.00725799999999 59.00725799999999" height="59.00725799999999" width="59.00725799999999"><g><svg viewBox="0 0 59.00725799999999 59.00725799999999" height="59.00725799999999" width="59.00725799999999"><g id="textblocktransform"><svg viewBox="0 0 59.00725799999999 59.00725799999999" height="59.00725799999999" width="59.00725799999999" id="textblock"><g><svg viewBox="0 0 59.00725799999999 59.00725799999999" height="59.00725799999999" width="59.00725799999999"><g><svg viewBox="0 0 59.00725799999999 59.00725799999999" height="59.00725799999999" width="59.00725799999999"><g><svg xmlns="http://www.w3.org/2000/svg" xmlns:xlink="http://www.w3.org/1999/xlink" version="1.1" x="0" y="0" viewBox="2.2650000000000006 2.152 77.282 77.282" enable-background="new 0 0 81.813 81.585" xml:space="preserve" height="59.00725799999999" width="59.00725799999999" class="icon-icon-0" data-fill-palette-color="accent" id="icon-0"><g fill="#fbeaab" data-fill-palette-color="accent"><path d="M40.906 2.152c-21.341 0-38.641 17.3-38.641 38.641 0 21.341 17.3 38.641 38.641 38.641s38.641-17.3 38.641-38.641C79.547 19.452 62.247 2.152 40.906 2.152zM40.906 77.074c-20.038 0-36.281-16.243-36.281-36.281 0-20.037 16.244-36.281 36.281-36.281 20.038 0 36.281 16.244 36.281 36.281C77.188 60.831 60.945 77.074 40.906 77.074z" fill="#fbeaab" data-fill-palette-color="accent"></path><path d="M40.906 16.017V6.282c-3.09 0-6.083 0.412-8.933 1.174l2.52 9.404C36.54 16.313 38.688 16.017 40.906 16.017z" fill="#fbeaab" data-fill-palette-color="accent"></path><path d="M26.344 20.748l-5.722-7.875c-2.5 1.816-4.679 3.909-6.536 6.2l7.566 6.127C22.985 23.554 24.549 22.052 26.344 20.748z" fill="#fbeaab" data-fill-palette-color="accent"></path><path d="M17.343 33.136l-9.258-3.008c-0.955 2.939-1.487 5.913-1.644 8.858l9.722 0.51C16.275 37.38 16.658 35.246 17.343 33.136z" fill="#fbeaab" data-fill-palette-color="accent"></path><path d="M8.085 51.457c0.956 2.938 2.272 5.658 3.877 8.133l8.166-5.302c-1.153-1.778-2.098-3.73-2.784-5.839L8.085 51.457z" fill="#fbeaab" data-fill-palette-color="accent"></path><path d="M20.621 68.711c2.5 1.816 5.165 3.243 7.917 4.302l3.49-9.089c-1.978-0.761-3.89-1.785-5.685-3.088L20.621 68.711z" fill="#fbeaab" data-fill-palette-color="accent"></path><path d="M40.906 65.569l0 9.734c3.09-0.001 6.084-0.412 8.933-1.174l-2.519-9.404C45.273 65.272 43.124 65.567 40.906 65.569z" fill="#fbeaab" data-fill-palette-color="accent"></path><path d="M55.47 60.836l5.722 7.877c2.499-1.817 4.68-3.91 6.536-6.201l-7.564-6.128C58.827 58.031 57.263 59.533 55.47 60.836z" fill="#fbeaab" data-fill-palette-color="accent"></path><path d="M65.651 42.087c-0.113 2.117-0.496 4.252-1.18 6.36l9.259 3.01c0.953-2.939 1.487-5.914 1.643-8.859L65.651 42.087z" fill="#fbeaab" data-fill-palette-color="accent"></path><path d="M73.73 30.127c-0.956-2.938-2.272-5.659-3.878-8.132l-8.165 5.301c1.152 1.779 2.098 3.731 2.783 5.839L73.73 30.127z" fill="#fbeaab" data-fill-palette-color="accent"></path><path d="M61.193 12.871c-2.5-1.815-5.164-3.242-7.918-4.299l-3.489 9.087c1.978 0.762 3.89 1.786 5.684 3.088L61.193 12.871z" fill="#fbeaab" data-fill-palette-color="accent"></path><path d="M40.907 25.822V19.94c-1.867 0-3.676 0.25-5.397 0.709l1.522 5.682C38.268 26.001 39.567 25.822 40.907 25.822z" fill="#fbeaab" data-fill-palette-color="accent"></path><path d="M36.281 26.554l-1.818-5.594c-1.775 0.577-3.418 1.373-4.913 2.343l3.203 4.934C33.827 27.54 35.006 26.969 36.281 26.554z" fill="#fbeaab" data-fill-palette-color="accent"></path><path d="M32.107 28.681l-3.458-4.758c-1.51 1.098-2.826 2.362-3.949 3.747l4.571 3.702C30.077 30.377 31.023 29.469 32.107 28.681z" fill="#fbeaab" data-fill-palette-color="accent"></path><path d="M28.795 31.993l-4.758-3.458c-1.098 1.51-1.959 3.12-2.598 4.783l5.492 2.108C27.389 34.233 28.008 33.078 28.795 31.993z" fill="#fbeaab" data-fill-palette-color="accent"></path><path d="M26.669 36.167l-5.594-1.818c-0.577 1.776-0.899 3.573-0.993 5.353l5.875 0.308C26.024 38.731 26.256 37.441 26.669 36.167z" fill="#fbeaab" data-fill-palette-color="accent"></path><path d="M25.936 40.792h-5.882c0 1.866 0.25 3.675 0.709 5.397l5.682-1.522C26.115 43.43 25.937 42.132 25.936 40.792z" fill="#fbeaab" data-fill-palette-color="accent"></path><path d="M26.669 45.418l-5.594 1.817c0.577 1.775 1.373 3.42 2.343 4.914l4.934-3.203C27.655 47.873 27.084 46.693 26.669 45.418z" fill="#fbeaab" data-fill-palette-color="accent"></path><path d="M28.796 49.591l-4.759 3.457c1.098 1.512 2.362 2.828 3.746 3.95l3.703-4.571C30.491 51.62 29.584 50.676 28.796 49.591z" fill="#fbeaab" data-fill-palette-color="accent"></path><path d="M32.107 52.904l-3.458 4.759c1.511 1.097 3.121 1.959 4.784 2.599l2.108-5.492C34.347 54.309 33.192 53.691 32.107 52.904z" fill="#fbeaab" data-fill-palette-color="accent"></path><path d="M34.462 60.624c1.777 0.577 3.574 0.9 5.354 0.994l0.308-5.874c-1.278-0.069-2.568-0.301-3.843-0.714L34.462 60.624z" fill="#fbeaab" data-fill-palette-color="accent"></path><path d="M40.907 55.763l0 5.882c1.867 0 3.676-0.249 5.397-0.709l-1.521-5.684C43.545 55.583 42.247 55.762 40.907 55.763z" fill="#fbeaab" data-fill-palette-color="accent"></path><path d="M45.533 55.03l1.817 5.595c1.774-0.578 3.419-1.373 4.913-2.343l-3.202-4.935C47.987 54.045 46.807 54.616 45.533 55.03z" fill="#fbeaab" data-fill-palette-color="accent"></path><path d="M49.706 52.904l3.458 4.76c1.51-1.099 2.827-2.363 3.949-3.747l-4.571-3.703C51.735 51.208 50.79 52.115 49.706 52.904z" fill="#fbeaab" data-fill-palette-color="accent"></path><path d="M53.019 49.591l4.759 3.458c1.097-1.511 1.959-3.12 2.598-4.783l-5.491-2.108C54.424 47.353 53.805 48.508 53.019 49.591z" fill="#fbeaab" data-fill-palette-color="accent"></path><path d="M55.145 45.418l5.595 1.818c0.576-1.776 0.899-3.573 0.992-5.353l-5.873-0.31C55.789 42.854 55.558 44.144 55.145 45.418z" fill="#fbeaab" data-fill-palette-color="accent"></path><path d="M55.877 40.792l5.884 0c-0.001-1.867-0.25-3.676-0.711-5.397l-5.683 1.521C55.698 38.154 55.877 39.453 55.877 40.792z" fill="#fbeaab" data-fill-palette-color="accent"></path><path d="M55.144 36.166l5.596-1.818c-0.578-1.775-1.373-3.419-2.344-4.914l-4.933 3.203C54.159 33.712 54.731 34.892 55.144 36.166z" fill="#fbeaab" data-fill-palette-color="accent"></path><path d="M53.018 31.993l4.76-3.458c-1.098-1.509-2.362-2.827-3.747-3.949l-3.702 4.571C51.323 29.963 52.23 30.909 53.018 31.993z" fill="#fbeaab" data-fill-palette-color="accent"></path><path d="M49.706 28.681l3.458-4.759c-1.511-1.097-3.12-1.959-4.784-2.597l-2.107 5.491C47.467 27.275 48.622 27.894 49.706 28.681z" fill="#fbeaab" data-fill-palette-color="accent"></path><path d="M47.351 20.959c-1.775-0.576-3.572-0.898-5.353-0.993l-0.309 5.875c1.278 0.068 2.568 0.3 3.843 0.713L47.351 20.959z" fill="#fbeaab" data-fill-palette-color="accent"></path><path d="M63.176 40.792c0-12.28-9.99-22.271-22.27-22.271s-22.271 9.991-22.271 22.271c0 12.28 9.991 22.271 22.271 22.271S63.176 53.073 63.176 40.792zM19.635 40.792c0-11.729 9.542-21.271 21.271-21.271 11.728 0 21.27 9.542 21.27 21.271s-9.542 21.271-21.27 21.271C29.177 62.063 19.635 52.521 19.635 40.792z" fill="#fbeaab" data-fill-palette-color="accent"></path><path d="M65.286 40.792c0-13.444-10.937-24.381-24.38-24.381S16.525 27.349 16.525 40.792c0 13.443 10.938 24.381 24.381 24.381S65.286 54.236 65.286 40.792zM17.525 40.792c0-12.893 10.489-23.381 23.381-23.381 12.892 0 23.38 10.489 23.38 23.381s-10.488 23.381-23.38 23.381C28.013 64.173 17.525 53.685 17.525 40.792z" fill="#fbeaab" data-fill-palette-color="accent"></path><path d="M40.906 5.005c-19.733 0-35.788 16.054-35.788 35.788S21.173 76.58 40.906 76.58c19.733 0 35.787-16.054 35.787-35.787S60.639 5.005 40.906 5.005zM40.906 75.58c-19.182 0-34.788-15.605-34.788-34.787 0-19.182 15.605-34.788 34.788-34.788 19.181 0 34.787 15.605 34.787 34.788C75.693 59.974 60.087 75.58 40.906 75.58z" fill="#fbeaab" data-fill-palette-color="accent"></path><path d="M42.201 43.224l4.021 4.021c-0.129 0.517 0.003 1.084 0.406 1.488 0.612 0.611 1.604 0.611 2.216-0.001 0.612-0.611 0.612-1.604 0.001-2.215-0.403-0.403-0.97-0.535-1.485-0.408l-4.022-4.021c0.433-0.811 0.433-1.781 0-2.591l4.021-4.021c0.517 0.128 1.084-0.003 1.488-0.407 0.611-0.612 0.611-1.604-0.001-2.215-0.611-0.612-1.604-0.612-2.215 0-0.403 0.403-0.535 0.969-0.408 1.484l-4.021 4.022c-0.811-0.432-1.781-0.432-2.592 0l-4.021-4.021c0.129-0.516-0.003-1.084-0.406-1.488-0.612-0.612-1.604-0.612-2.216 0-0.612 0.612-0.612 1.604 0 2.216 0.403 0.403 0.97 0.535 1.485 0.407l4.021 4.022c-0.432 0.811-0.432 1.781 0 2.592l-4.021 4.021c-0.516-0.129-1.084 0.003-1.488 0.406-0.612 0.612-0.612 1.604 0 2.216 0.612 0.612 1.604 0.612 2.216 0 0.403-0.402 0.535-0.97 0.408-1.484l4.022-4.022C40.42 43.656 41.391 43.656 42.201 43.224z" fill="#fbeaab" data-fill-palette-color="accent"></path><circle cx="18.635" cy="61.645" r="1.6" fill="#fbeaab" data-fill-palette-color="accent"></circle></g></svg></g></svg></g></svg></g></svg></g></svg></g></svg></g></svg></g><defs></defs></svg><rect width="59.00725799999999" height="59.00725799999999" fill="none" stroke="none" visibility="hidden"></rect></g></svg></g></svg>